<svg width="420" height="420" viewBox="0 0 420 420" fill="none" xmlns="http://www.w3.org/2000/svg">
<path d="M420 210C420 325.98 325.98 420 210 420C94.0202 420 0 325.98 0 210C0 94.0202 94.0202 0 210 0C325.98 0 420 94.0202 420 210Z" fill="#313131"/>
<path d="M112.5 267C112.5 274.491 106.869 280.5 100 280.5C93.1307 280.5 87.5 274.491 87.5 267C87.5 259.509 93.1307 253.5 100 253.5C106.869 253.5 112.5 259.509 112.5 267Z" fill="white" stroke="white"/>
<path d="M299.5 91.5C299.5 95.9473 296.114 99.5 292 99.5C287.886 99.5 284.5 95.9473 284.5 91.5C284.5 87.0527 287.886 83.5 292 83.5C296.114 83.5 299.5 87.0527 299.5 91.5Z" fill="white" stroke="white"/>
<path d="M141 116.5C141 119.261 138.761 121.5 136 121.5C133.239 121.5 131 119.261 131 116.5C131 113.739 133.239 111.5 136 111.5C138.761 111.5 141 113.739 141 116.5Z" fill="white" stroke="white"/>
<path d="M324.5 252.5C324.5 256.947 321.114 260.5 317 260.5C312.886 260.5 309.5 256.947 309.5 252.5C309.5 248.053 312.886 244.5 317 244.5C321.114 244.5 324.5 248.053 324.5 252.5Z" fill="white" stroke="white"/>
<path d="M278 234.098L167 333.316L195 259.098L141 248.098L210 111L289 119.598L210 220.098L278 234.098Z" fill="#FFF8D2"/>
</svg>
